<?xml version="1.0" encoding="UTF-8"?>
<svg width="791px" height="791px" viewBox="0 0 791 791" version="1.1" xmlns="http://www.w3.org/2000/svg" xmlns:xlink="http://www.w3.org/1999/xlink">
    <title>tool-stent</title>
    <defs>
        <filter id="filter-1">
            <feColorMatrix in="SourceGraphic" type="matrix" values="0 0 0 0 0.933333 0 0 0 0 0.933333 0 0 0 0 0.933333 0 0 0 1.000000 0"></feColorMatrix>
        </filter>
        <filter id="filter-2">
            <feColorMatrix in="SourceGraphic" type="matrix" values="0 0 0 0 0.933333 0 0 0 0 0.933333 0 0 0 0 0.933333 0 0 0 1.000000 0"></feColorMatrix>
        </filter>
        <filter id="filter-3">
            <feColorMatrix in="SourceGraphic" type="matrix" values="0 0 0 0 0.933333 0 0 0 0 0.933333 0 0 0 0 0.933333 0 0 0 1.000000 0"></feColorMatrix>
        </filter>
    </defs>
    <g id="tool-stent" stroke="none" stroke-width="1" fill="none" fill-rule="evenodd">
        <rect id="Rectangle-Copy-29" fill="#2E5CE1" opacity="0" x="0" y="0" width="791" height="791" rx="80"></rect>
        <g filter="url(#filter-1)" id="Group">
            <g transform="translate(385.500000, 395.000000) rotate(-330.000000) translate(-385.500000, -395.000000) translate(136.000000, 33.000000)">
                <g filter="url(#filter-2)" id="ic-feature-3-copy-2">
                    <g transform="translate(249.565892, 234.944063) rotate(-30.000000) translate(-249.565892, -234.944063) translate(79.565892, 62.444063)">
                        <path d="M123.842105,3.33421053 C140.985534,-11.5535035 147.381921,36.6114767 146.857097,53.658667 L137.388209,132.116339 L193.651711,92.5848478 C209.738715,85.0812716 220.446039,82.957375 225.773684,86.2131579 C231.489474,89.7061404 233.871053,99.2324561 232.918421,114.792105 C232.915454,114.78386 232.913118,114.782703 232.910783,114.781546 L226.510639,186.425709 L293.008184,136.558957 C320.231077,128.273986 347.457949,129.925785 337.038793,145.101781 C336.961373,145.214548 336.938728,145.364862 336.970859,145.552723 L226.464087,336.958194 C216.734426,350.971062 189.870872,346.095935 184.041073,318.994458 L183.973551,318.688773 L184.174717,318.750151 L190.429736,251.834719 L130.162987,297.109001 L130.223975,297.139985 C115.512395,305.414355 105.283954,307.987242 99.5386524,304.858647 C94.0768545,301.884433 90.7055176,291.382223 89.4246417,273.352016 L98.785816,196.053066 L42.9067438,235.713034 C29.871888,242.592012 -3.62086486,239.504281 0.73312925,217.04578 C0.907140957,216.148204 1.39558868,215.297364 1.78433537,214.285061 L123.10898,4.12482777 C123.338756,3.83396885 123.57571,3.5655535 123.842105,3.33421053 Z M278.141563,186.012221 L278.139181,186.016346 L222.852032,227.505076 L217.116155,291.673223 L278.141563,186.012221 Z M202.56259,122.439105 L132.553472,172.098665 L121.289712,265.398912 L194.300554,210.597371 L202.56259,122.439105 Z M112.268012,84.3160595 L48.6946108,194.456999 L103.642842,155.841607 L112.268012,84.3160595 Z" id="Combined-Shape" fill="#FFFFFF" fill-rule="nonzero"></path>
                    </g>
                </g>
                <g filter="url(#filter-3)" id="ic-feature-3-copy-2">
                    <g transform="translate(249.435061, 471.082543) scale(1, -1) rotate(-30.000000) translate(-249.435061, -471.082543) translate(70.435061, 283.082543)">
                        <path d="M141.942105,3.33421053 C159.086532,-11.5543704 165.482665,36.6170857 164.957006,53.6616444 L155.488209,132.116339 L211.752895,92.5842957 C227.83924,85.0811674 238.54617,82.9574548 243.873684,86.2131579 C249.589474,89.7061404 251.971053,99.2324561 251.018421,114.792105 C251.016118,114.784189 251.01345,114.782868 251.010783,114.781546 L244.610639,186.425709 L311.107551,136.55915 C338.330654,128.27396 365.55803,129.925668 355.138793,145.101781 C355.061373,145.214548 355.038728,145.364862 355.070859,145.552723 L237.345105,349.459089 L223.090637,374.165716 C222.453904,374.846423 221.820378,375.193377 221.190608,375.242128 L222.148462,375.793275 C220.907991,375.075167 219.676253,374.362123 218.453246,373.654144 C214.387788,368.735904 210.518538,353.140323 207.003331,337.018173 L206.599707,335.158001 C205.326586,329.263717 204.101439,323.351235 202.931878,317.914198 C202.800153,317.301839 202.663524,316.698996 202.521991,316.10567 L208.529736,251.834719 L151.007913,295.046991 C150.732835,295.181102 150.456718,295.317231 150.179561,295.455378 C134.368528,304.927751 123.521559,308.062174 117.638652,304.858647 C111.831047,301.696124 108.643889,289.671246 108.07718,268.784012 L116.885816,196.053066 L65.400141,232.591327 C64.7381645,232.827567 64.1125992,233.15602 63.523445,233.576687 C57.0280386,238.214528 35.3059233,251.678732 18.5241494,258.200776 C12.6885204,254.839374 6.72475319,251.406861 0.6351171,247.902485 L15.7186409,221.49749 L141.208178,4.12584367 C141.438204,3.83459384 141.6754,3.56582282 141.942105,3.33421053 Z M296.239117,186.015773 L240.952032,227.505076 L235.216155,291.673223 L296.239117,186.015773 Z M220.66259,122.439105 L150.653472,172.098665 L139.389712,265.398912 L212.400554,210.597371 L220.66259,122.439105 Z M130.368012,84.3160595 L66.7946108,194.456999 L121.742842,155.841607 L130.368012,84.3160595 Z" id="Combined-Shape" fill="#FFFFFF" fill-rule="nonzero"></path>
                    </g>
                </g>
            </g>
        </g>
    </g>
</svg>