<?xml version="1.0" encoding="UTF-8"?>
<svg width="30px" height="30px" viewBox="0 0 30 30" version="1.1" xmlns="http://www.w3.org/2000/svg" xmlns:xlink="http://www.w3.org/1999/xlink">
    <title>mail_w</title>
    <g id="mail_w" stroke="none" stroke-width="1" fill="none" fill-rule="evenodd">
        <path d="M15,0 C23.2842712,0 30,6.71572875 30,15 C30,23.2842712 23.2842712,30 15,30 C6.71572875,30 0,23.2842712 0,15 C0,6.71572875 6.71572875,0 15,0 Z M24,13.7942708 C24,13.615625 23.7960938,13.5098958 23.6589844,13.6229167 C22.8714844,14.2572917 21.8308594,15.0666667 18.2449219,17.7682292 C17.53125,18.3078125 16.2550781,19.5145833 15,19.5036458 C13.7519531,19.5109375 12.5003906,18.3296875 11.7585937,17.7682292 C8.17265625,15.0666667 7.12851563,14.2609375 6.34101562,13.6265625 C6.20039062,13.5135417 6,13.615625 6,13.7979167 L6,13.7979167 L6,21.25 C6,22.2161458 6.75585938,23 7.6875,23 L7.6875,23 L22.3125,23 C23.2441406,23 24,22.2161458 24,21.25 L24,21.25 Z M22.3125,9 L7.6875,9 C6.75585938,9 6,9.78385417 6,10.75 L6,11.4427083 C6,11.7125 6.11953125,11.9640625 6.3234375,12.1317708 C6.36826172,12.1680773 6.41183472,12.2034089 6.45452042,12.238038 L6.58027954,12.3400897 C6.60091705,12.3568377 6.62142372,12.3734782 6.64184504,12.3900451 L6.7637126,12.4888354 C7.59444885,13.161589 8.43464355,13.8250326 12.4195313,16.8239583 C13.0101563,17.26875 14.184375,18.3479167 15,18.3333333 C15.815625,18.3479167 16.9898438,17.26875 17.5804688,16.8239583 C21.0793945,14.1907552 22.1538574,13.3601888 22.9262512,12.7403402 L23.0525505,12.6387102 C23.1353706,12.5718936 23.2159172,12.5065867 23.2971016,12.4406057 L23.4197205,12.3408556 C23.5022705,12.2736545 23.5869141,12.2046875 23.6765625,12.1317708 C23.8804688,11.9677083 24,11.7125 24,11.4427083 L24,10.75 C24,9.78385417 23.2441406,9 22.3125,9 Z" id="Combined-Shape" fill="#E0E2E3"></path>
        <polyline id="Path-10" stroke="#E0E2E3" stroke-width="2" stroke-linecap="round" stroke-linejoin="round" points="5.66666667 12.5753401 15 19.1903977 24.6666667 12.5753401"></polyline>
    </g>
</svg>