<?xml version="1.0" encoding="UTF-8"?>
<svg width="32px" height="29px" viewBox="0 0 32 29" version="1.1" xmlns="http://www.w3.org/2000/svg" xmlns:xlink="http://www.w3.org/1999/xlink">
    <title>github_w</title>
    <g id="github_w" stroke="none" stroke-width="1" fill="none" fill-rule="evenodd">
        <path d="M10.8728417,23.3507576 C10.8728417,23.4706896 10.7337288,23.5666352 10.5583256,23.5666352 C10.3587288,23.584625 10.2196159,23.4886794 10.2196159,23.3507576 C10.2196159,23.2308256 10.3587288,23.13488 10.534132,23.13488 C10.7155836,23.1168902 10.8728417,23.2128358 10.8728417,23.3507576 Z M8.9917933,23.0809106 C8.94945459,23.2008426 9.07042233,23.3387644 9.25187394,23.374744 C9.40913201,23.43471 9.59058362,23.374744 9.62687394,23.254812 C9.66316427,23.13488 9.54824491,22.9969582 9.3667933,22.9429888 C9.20953524,22.9010126 9.03413201,22.9609786 8.9917933,23.0809106 Z M11.6651804,22.9789684 C11.4897772,23.0209446 11.3688094,23.13488 11.3869546,23.2728018 C11.4050998,23.3927338 11.5623578,23.4706896 11.7438094,23.4287134 C11.9192127,23.3867372 12.0401804,23.2728018 12.0220352,23.1528698 C12.0038901,23.0389344 11.8405836,22.9609786 11.6651804,22.9789684 Z M15.6450191,0 C7.2559062,0 0.838567493,6.31441904 0.838567493,14.6317022 C0.838567493,21.2819308 5.06034169,26.9727036 11.0905836,28.9755677 C11.8647772,29.1134895 12.1369546,28.6397582 12.1369546,28.2499792 C12.1369546,27.87819 12.1188094,25.8273531 12.1188094,24.5680672 C12.1188094,24.5680672 7.88493846,25.4675571 6.99582556,22.7810807 C6.99582556,22.7810807 6.30630943,21.0360703 5.31437394,20.5863253 C5.31437394,20.5863253 3.9292933,19.6448592 5.41114814,19.662849 C5.41114814,19.662849 6.91719653,19.782781 7.74582556,21.2099716 C9.07042233,23.524659 11.2901804,22.8590365 12.1550998,22.4632609 C12.2942127,21.503805 12.6873578,20.8381825 13.1228417,20.4424069 C9.7417933,20.0706178 6.33050298,19.5848932 6.33050298,13.8161647 C6.33050298,12.1670999 6.7901804,11.3395692 7.75792233,10.2841678 C7.60066427,9.89438881 7.08655136,8.2873002 7.9151804,6.21247685 C9.1792933,5.8226979 12.0885675,7.83155866 12.0885675,7.83155866 C13.2982449,7.4957491 14.5986481,7.32184772 15.8869546,7.32184772 C17.175261,7.32184772 18.4756643,7.4957491 19.6853417,7.83155866 C19.6853417,7.83155866 22.5946159,5.8167013 23.8587288,6.21247685 C24.6873578,8.2932968 24.1732449,9.89438881 24.0159868,10.2841678 C24.9837288,11.3455658 25.5764707,12.1730965 25.5764707,13.8161647 C25.5764707,19.602883 22.0139707,20.0646212 18.6329223,20.4424069 C19.1893739,20.9161383 19.6611481,21.8156282 19.6611481,23.224829 C19.6611481,25.245683 19.643003,27.7462649 19.643003,28.237986 C19.643003,28.627765 19.9212288,29.1014963 20.6893739,28.9635745 C26.737761,26.9727036 30.8385675,21.2819308 30.8385675,14.6317022 C30.8385675,6.31441904 24.034132,0 15.6450191,0 Z M6.71759975,20.6822709 C6.63897072,20.7422369 6.65711588,20.8801587 6.75993846,20.9940941 C6.85671265,21.0900397 6.99582556,21.1320159 7.07445459,21.0540601 C7.15308362,20.9940941 7.13493846,20.8561723 7.03211588,20.7422369 C6.93534169,20.6462913 6.79622878,20.6043151 6.71759975,20.6822709 Z M6.06437394,20.1965464 C6.02203524,20.2745022 6.08251911,20.3704477 6.20348685,20.4304137 C6.30026104,20.4903797 6.42122878,20.4723899 6.46356749,20.3884375 C6.5059062,20.3104818 6.44542233,20.2145362 6.32445459,20.1545702 C6.20348685,20.1185906 6.10671265,20.1365804 6.06437394,20.1965464 Z M8.02405136,22.3313357 C7.92727717,22.4092915 7.96356749,22.5891895 8.1026804,22.7031249 C8.2417933,22.8410467 8.41719653,22.8590365 8.49582556,22.7630909 C8.57445459,22.6851351 8.53816427,22.5052371 8.41719653,22.3913017 C8.28413201,22.2533799 8.1026804,22.2353901 8.02405136,22.3313357 Z M7.33453524,21.4498356 C7.23776104,21.5098016 7.23776104,21.6657132 7.33453524,21.803635 C7.43130943,21.9415568 7.59461588,22.0015228 7.67324491,21.9415568 C7.77001911,21.863601 7.77001911,21.7076894 7.67324491,21.5697676 C7.58856749,21.4318458 7.43130943,21.3718798 7.33453524,21.4498356 Z" id="Shape" fill="#E0E2E3" fill-rule="nonzero"></path>
    </g>
</svg>